M48
;GenerationSoftware,Autodesk,EAGLE,9.5.1*%
;CreationDate,2021-01-25T03:27:43Z*%
FMAT,2
ICI,OFF
METRIC,TZ,000.000
T13C0.300
T12C0.350
T11C0.400
T10C0.500
T9C0.600
T8C0.700
T7C0.914
T6C1.000
T5C1.016
T4C1.524
T3C2.200
T2C2.286
T1C3.200
%
G90
M71
T1
X96800Y3200
X3200Y3200
X3200Y64800
X96800Y64800
T2
X79870Y61058
X91910Y61058
T3
X71000Y58000
T4
X14764Y57030
X10574Y57030
X18956Y51518
X14764Y51518
X18956Y57030
X10574Y51518
X14100Y4000
X23146Y51518
X9900Y10000
X14100Y10000
X23146Y57030
X9900Y4000
T5
X53499Y62997
X40730Y61000
X57000Y6000
X40730Y63540
X43270Y63540
X68260Y3930
X50501Y62997
X53499Y60000
X73340Y3930
X50501Y60000
X40730Y58460
X43270Y61000
X75880Y3930
X70800Y3930
X57000Y8540
X57000Y3460
X47504Y59060
X56496Y59060
X43270Y58460
T6
X64349Y32016
X4600Y53300
X71969Y32016
X4600Y57300
X69429Y32016
X66889Y32016
X89810Y3940
X87270Y3940
X84730Y3940
X82190Y3940
T7
X84640Y56359
X87140Y56359
X87140Y58340
X84640Y58340
T8
X85000Y10000
X87000Y10000
X89000Y10000
X67900Y62970
X73900Y62970
X86000Y23700
X88000Y23700
X90000Y23700
X86000Y29000
X88000Y29000
X90000Y29000
X71900Y62970
X69900Y62970
X63900Y62970
X65900Y62970
X83000Y10000
X61900Y62970
T9
X5000Y10000
X3000Y12000
T10
X23000Y16000
X26000Y46000
X80000Y20000
X81000Y20000
X10700Y31100
X68200Y22800
X51000Y43000
X22000Y18000
X23000Y18000
X24000Y18000
X23000Y17000
X22000Y16000
X22000Y2000
X25000Y16000
X22000Y3000
X23000Y3000
X23000Y2000
X25000Y17000
X24000Y17000
X22000Y17000
X25000Y22000
X25000Y23000
X25000Y18000
X24000Y16000
T11
X22000Y22000
X22000Y25000
X22500Y37500
X22500Y36500
X22500Y35500
X22500Y34500
X50400Y50000
X55400Y50000
X50400Y49000
X55400Y49000
X55400Y48000
X50400Y48000
X22500Y33500
X36000Y52000
X21000Y25000
X43000Y52000
X21000Y24000
X21000Y23000
X21000Y22000
X22500Y39500
X22500Y38500
X59000Y52000
X25000Y36000
X23200Y49200
X22500Y40500
X25000Y32000
X24000Y36000
X24000Y37000
X24000Y35000
X24000Y34000
X24000Y33000
X25000Y33000
X25000Y34000
X25000Y35000
X26000Y31000
X26000Y32000
X26000Y33000
X26000Y34000
X26000Y35000
X27000Y34000
X27000Y33000
X27000Y32000
X27000Y31000
X27000Y30000
X10400Y24000
X10400Y28500
X1000Y5000
X2000Y5000
X5000Y5000
X5000Y2000
X5000Y1000
X4000Y1000
X3000Y1000
X2000Y1000
X1000Y1000
X1000Y2000
X1000Y3000
X1000Y4000
X1600Y54900
X24800Y55200
X40000Y46000
X33000Y49000
X35000Y37500
X39000Y40700
X37400Y40700
X89000Y46000
X86600Y46000
X91000Y54000
X86000Y54000
X89000Y45000
X79000Y40000
X85000Y41000
X85000Y37000
X79000Y47000
X84000Y49000
X97000Y47000
X97000Y40000
X97000Y33000
X79000Y33000
X89000Y48600
X89000Y50300
X6000Y34000
X6000Y33000
X6000Y32000
X6000Y31000
X6000Y30000
X6000Y29000
X6000Y28000
X6000Y27000
X6000Y26000
X22000Y24000
X22000Y23000
T12
X57700Y19300
X81000Y14000
X73000Y16600
X55800Y21800
X56400Y19000
X36000Y54000
X69342Y47117
X67945Y47244
X66675Y47117
X65405Y47117
X62738Y49149
X50673Y35814
X60198Y12065
X66548Y38227
T13
X31300Y59000
X57800Y25900
X60100Y25900
X50000Y25000
X61000Y24000
X57800Y23000
X26700Y55800
X26000Y39800
X35300Y33000
X35000Y28000
X29000Y27000
X37000Y24000
X43000Y25000
X46000Y25000
X44600Y26900
X50900Y28000
X49000Y28000
X49000Y34000
X49000Y36000
X41000Y37000
X36000Y40000
X26100Y51000
X33000Y52500
X46000Y52000
X29000Y7300
X29000Y13000
X27000Y13000
X32000Y13000
X37500Y13000
X40000Y2000
X50000Y4000
X36000Y2000
X40000Y8000
X36000Y8000
X41000Y10000
X43000Y8000
X47000Y11000
X51000Y11000
X55000Y16000
X61000Y17000
X77000Y12000
X73000Y12000
X95000Y12000
X95000Y7000
X97000Y30000
X98000Y17000
X93000Y2000
X79000Y30000
X75000Y34000
X75000Y40000
X75000Y42000
X75000Y44000
X55000Y38000
X65000Y22000
X63000Y15000
X57000Y14000
X63000Y11000
X33000Y9000
X35000Y16000
X68000Y15000
X42000Y20000
X98000Y25000
X77000Y22000
X24000Y22000
X33000Y21000
X38000Y19000
X43000Y1300
X64000Y25000
X84000Y18000
X25000Y31000
X26000Y30000
X29200Y57000
X27500Y57000
X57000Y22000
X34500Y46000
X89600Y33700
X46000Y36000
X52000Y38400
X55000Y39000
X30400Y57000
X44000Y45000
X44600Y37900
X44700Y40900
X44700Y43700
X43100Y37900
X35000Y48000
X42100Y37900
X35000Y47000
X11900Y31500
X95000Y5000
X27600Y42300
X12000Y32900
X98000Y5000
X29800Y42300
X11200Y32200
X95000Y2000
X28700Y42300
X26700Y48700
X31000Y53000
X26000Y49300
X29400Y53000
X50500Y37800
X16500Y31400
X36000Y49000
X15100Y31400
X48600Y37800
X15100Y33700
X46300Y37200
X16500Y33700
X45300Y37200
X15100Y32100
X86200Y48000
X92000Y47300
X86600Y49400
X92000Y49100
X90100Y44000
X87100Y43400
X91300Y48300
X91300Y46500
X95000Y1000
X96000Y1000
X97000Y1000
X98000Y1000
X99000Y5000
X99000Y4000
X99000Y3000
X99000Y2000
X99000Y1000
X55000Y17000
X24000Y32000
X27000Y29000
X23000Y26000
X24000Y25000
X24000Y24000
X24000Y23000
X16500Y32100
X46000Y46000
X5000Y26000
X50900Y34000
X30200Y45500
X25900Y44700
X41000Y52000
X41600Y42800
X37400Y43000
X31000Y47000
X29000Y37000
X35000Y42000
X32000Y42000
X29600Y30000
X29600Y33000
X29600Y35000
X10700Y17000
X10700Y18000
X27000Y7300
X10700Y19000
X10700Y20000
X10700Y21000
X10700Y22000
X10000Y17000
X9000Y17000
X7000Y26000
X7000Y27000
X7000Y28000
X23000Y22000
X23000Y23000
X23000Y24000
X23000Y25000
X8000Y17000
X6000Y17000
X6000Y18000
X7000Y18000
X8000Y18000
X10000Y18000
X9000Y18000
X10000Y19000
X10000Y20000
X10000Y21000
X7000Y17000
X5000Y22000
X6000Y22000
X7000Y22000
X10000Y22000
X9000Y22000
X8000Y22000
X5000Y27000
X5000Y28000
X5000Y29000
X7000Y29000
X7000Y30000
X5000Y30000
X5000Y34000
X5000Y33000
X5000Y32000
X5000Y31000
X7000Y31000
X7000Y32000
X16500Y32800
X15100Y32800
X38000Y31000
X47000Y17000
X87000Y20000
X88000Y19000
X77000Y18000
X49600Y37800
M30