G04 EAGLE Gerber RS-274X export*
G75*
%MOMM*%
%FSLAX34Y34*%
%LPD*%
%IN*%
%IPPOS*%
%AMOC8*
5,1,8,0,0,1.08239X$1,22.5*%
G01*
%ADD10C,0.254000*%


D10*
X0Y2500D02*
X10Y2282D01*
X38Y2066D01*
X85Y1853D01*
X151Y1645D01*
X234Y1443D01*
X335Y1250D01*
X452Y1066D01*
X585Y893D01*
X732Y732D01*
X893Y585D01*
X1066Y452D01*
X1250Y335D01*
X1443Y234D01*
X1645Y151D01*
X1853Y85D01*
X2066Y38D01*
X2282Y10D01*
X2500Y0D01*
X997500Y0D01*
X997718Y10D01*
X997934Y38D01*
X998147Y85D01*
X998355Y151D01*
X998557Y234D01*
X998750Y335D01*
X998934Y452D01*
X999107Y585D01*
X999268Y732D01*
X999415Y893D01*
X999548Y1066D01*
X999665Y1250D01*
X999766Y1443D01*
X999849Y1645D01*
X999915Y1853D01*
X999962Y2066D01*
X999991Y2282D01*
X1000000Y2500D01*
X1000000Y648000D01*
X999878Y650789D01*
X999514Y653557D01*
X998910Y656282D01*
X998070Y658945D01*
X997002Y661524D01*
X995713Y664000D01*
X994213Y666354D01*
X992513Y668569D01*
X990627Y670627D01*
X988569Y672513D01*
X986354Y674213D01*
X984000Y675713D01*
X981524Y677002D01*
X978945Y678070D01*
X976282Y678910D01*
X973557Y679514D01*
X970789Y679878D01*
X968000Y680000D01*
X32000Y680000D01*
X29211Y679878D01*
X26443Y679514D01*
X23718Y678910D01*
X21055Y678070D01*
X18476Y677002D01*
X16000Y675713D01*
X13646Y674213D01*
X11431Y672513D01*
X9373Y670627D01*
X7487Y668569D01*
X5787Y666354D01*
X4287Y664000D01*
X2998Y661524D01*
X1930Y658945D01*
X1090Y656282D01*
X486Y653557D01*
X122Y650789D01*
X0Y648000D01*
X0Y2500D01*
X559878Y590887D02*
X559942Y591454D01*
X560069Y592011D01*
X560257Y592549D01*
X560505Y593063D01*
X560808Y593546D01*
X561164Y593992D01*
X561568Y594396D01*
X562014Y594752D01*
X562497Y595055D01*
X563011Y595303D01*
X563549Y595491D01*
X564106Y595618D01*
X564673Y595682D01*
X565243Y595682D01*
X565810Y595618D01*
X566367Y595491D01*
X566905Y595303D01*
X567419Y595055D01*
X567902Y594752D01*
X568348Y594396D01*
X568752Y593992D01*
X569108Y593546D01*
X569411Y593063D01*
X569659Y592549D01*
X569847Y592011D01*
X569974Y591454D01*
X570038Y590887D01*
X570038Y590317D01*
X569974Y589750D01*
X569847Y589193D01*
X569659Y588655D01*
X569411Y588141D01*
X569108Y587658D01*
X568752Y587212D01*
X568348Y586808D01*
X567902Y586452D01*
X567419Y586149D01*
X566905Y585901D01*
X566367Y585713D01*
X565810Y585586D01*
X565243Y585522D01*
X564673Y585522D01*
X564106Y585586D01*
X563549Y585713D01*
X563011Y585901D01*
X562497Y586149D01*
X562014Y586452D01*
X561568Y586808D01*
X561164Y587212D01*
X560808Y587658D01*
X560505Y588141D01*
X560257Y588655D01*
X560069Y589193D01*
X559942Y589750D01*
X559878Y590317D01*
X559878Y590887D01*
X469962Y590887D02*
X470026Y591454D01*
X470153Y592011D01*
X470341Y592549D01*
X470589Y593063D01*
X470892Y593546D01*
X471248Y593992D01*
X471652Y594396D01*
X472098Y594752D01*
X472581Y595055D01*
X473095Y595303D01*
X473633Y595491D01*
X474190Y595618D01*
X474757Y595682D01*
X475327Y595682D01*
X475894Y595618D01*
X476451Y595491D01*
X476989Y595303D01*
X477503Y595055D01*
X477986Y594752D01*
X478432Y594396D01*
X478836Y593992D01*
X479192Y593546D01*
X479495Y593063D01*
X479743Y592549D01*
X479931Y592011D01*
X480058Y591454D01*
X480122Y590887D01*
X480122Y590317D01*
X480058Y589750D01*
X479931Y589193D01*
X479743Y588655D01*
X479495Y588141D01*
X479192Y587658D01*
X478836Y587212D01*
X478432Y586808D01*
X477986Y586452D01*
X477503Y586149D01*
X476989Y585901D01*
X476451Y585713D01*
X475894Y585586D01*
X475327Y585522D01*
X474757Y585522D01*
X474190Y585586D01*
X473633Y585713D01*
X473095Y585901D01*
X472581Y586149D01*
X472098Y586452D01*
X471652Y586808D01*
X471248Y587212D01*
X470892Y587658D01*
X470589Y588141D01*
X470341Y588655D01*
X470153Y589193D01*
X470026Y589750D01*
X469962Y590317D01*
X469962Y590887D01*
M02*
